<svg data-v-423bf9ae="" xmlns="http://www.w3.org/2000/svg" viewBox="0 0 242.67303764623765 60" class="font"><!----><!----><!----><g data-v-423bf9ae="" id="9f316432-98d4-4461-8d9f-499638dd054d" fill="white" transform="matrix(4.7732696533203125,0,0,4.7732696533203125,-2.2911648750305176,-8.019091606140137)"><path d="M3.95 4.37C1.81 4.37 0.48 5.98 0.48 7.98C0.48 9.98 1.81 11.59 3.95 11.59C6.09 11.59 7.42 9.98 7.42 7.98C7.42 5.98 6.09 4.37 3.95 4.37ZM3.95 10.64C2.39 10.64 1.53 9.42 1.53 7.98C1.53 6.54 2.39 5.32 3.95 5.32C5.50 5.32 6.37 6.54 6.37 7.98C6.37 9.42 5.50 10.64 3.95 10.64ZM11.76 4.37C9.72 4.37 8.37 5.98 8.37 7.98C8.37 9.98 9.72 11.59 11.76 11.59C12.92 11.59 13.75 11.12 14.27 10.36L14.27 11.48L15.32 11.48L15.32 1.68L14.27 1.68L14.27 5.61C13.75 4.86 12.92 4.37 11.76 4.37ZM11.90 10.64C10.35 10.64 9.42 9.42 9.42 7.98C9.42 6.54 10.35 5.32 11.90 5.32C13.45 5.32 14.32 6.54 14.32 7.98C14.32 9.42 13.45 10.64 11.90 10.64ZM23.14 4.48L21.99 4.48L19.70 10.22L17.44 4.48L16.28 4.48L19.14 11.38L17.86 14.25L19.00 14.25ZM26.53 4.37C24.72 4.37 23.79 5.11 23.79 6.37C23.79 8.93 28.45 7.84 28.45 9.59C28.45 10.54 27.23 10.70 26.66 10.70C25.30 10.70 24.77 10.00 24.70 9.28L23.60 9.28C23.67 10.51 24.70 11.59 26.64 11.59C28.38 11.59 29.50 10.85 29.50 9.49C29.50 6.86 24.84 7.95 24.84 6.27C24.84 5.59 25.41 5.26 26.50 5.26C27.68 5.26 28.13 5.75 28.21 6.36L29.27 6.36C29.15 5.33 28.38 4.37 26.53 4.37ZM33.28 4.37C31.47 4.37 30.53 5.11 30.53 6.37C30.53 8.93 35.20 7.84 35.20 9.59C35.20 10.54 33.98 10.70 33.40 10.70C32.05 10.70 31.51 10.00 31.44 9.28L30.35 9.28C30.42 10.51 31.44 11.59 33.39 11.59C35.13 11.59 36.25 10.85 36.25 9.49C36.25 6.86 31.58 7.95 31.58 6.27C31.58 5.59 32.16 5.26 33.25 5.26C34.43 5.26 34.87 5.75 34.96 6.36L36.02 6.36C35.90 5.33 35.13 4.37 33.28 4.37ZM40.71 10.64C39.30 10.64 38.39 9.65 38.23 8.40L44.10 8.40L44.10 7.98C44.10 5.98 42.77 4.37 40.63 4.37C38.49 4.37 37.16 5.98 37.16 7.98C37.16 9.98 38.56 11.59 40.70 11.59C42.36 11.59 43.40 10.72 43.89 9.46L42.74 9.46C42.36 10.16 41.69 10.64 40.71 10.64ZM40.63 5.32C41.97 5.32 42.81 6.23 43.01 7.42L38.25 7.42C38.44 6.23 39.28 5.32 40.63 5.32ZM51.32 4.48L50.18 4.48L47.88 10.22L45.63 4.48L44.46 4.48L47.32 11.38L46.05 14.25L47.18 14.25Z"></path></g><!----><!----></svg>